<?xml version="1.0" standalone="no"?>
<!DOCTYPE svg PUBLIC "-//W3C//DTD SVG 20010904//EN"
 "http://www.w3.org/TR/2001/REC-SVG-20010904/DTD/svg10.dtd">
<svg version="1.0" xmlns="http://www.w3.org/2000/svg"
 width="500.000000pt" height="500.000000pt" viewBox="0 0 500.000000 500.000000"
 preserveAspectRatio="xMidYMid meet">

<g transform="translate(0.000000,500.000000) scale(0.100000,-0.100000)"
fill="#000000" stroke="none">
<path d="M2410 3204 c-96 -30 -265 -194 -309 -302 -7 -18 -17 -32 -21 -32 -4
0 -10 38 -12 84 -5 66 -11 95 -33 135 -55 100 -169 119 -246 42 -39 -39 -58
-86 -42 -102 6 -6 24 5 50 31 33 32 48 40 77 40 20 0 36 -3 36 -7 -1 -5 -65
-111 -144 -238 l-143 -230 -39 0 c-33 0 -39 -3 -42 -23 -2 -14 4 -29 14 -37
17 -12 16 -15 -11 -51 -78 -102 -123 -140 -175 -144 -50 -4 -61 0 -71 30 -6
17 -15 30 -19 30 -18 0 -40 -33 -40 -59 0 -36 29 -61 78 -68 85 -11 164 40
260 170 39 52 73 88 87 91 13 3 63 3 110 0 95 -8 86 2 105 -108 10 -62 40
-120 70 -136 67 -36 209 26 210 93 0 22 -3 22 -51 -10 -33 -22 -45 -25 -67
-17 -32 11 -72 83 -72 131 0 30 2 32 42 35 l43 3 16 95 c9 52 26 120 38 151
74 196 231 339 372 339 51 0 59 3 65 22 5 16 1 27 -16 40 -26 21 -58 22 -120
2z m-403 -218 c24 -79 13 -235 -24 -351 -14 -44 -17 -47 -25 -26 -10 29 -12
419 -2 445 7 19 8 18 23 -4 9 -13 22 -42 28 -64z m-147 -221 l0 -155 -90 0
c-60 0 -90 4 -90 11 0 11 171 299 177 299 2 0 3 -70 3 -155z"/>
<path d="M2390 2750 l0 -180 25 0 25 0 0 180 0 180 -25 0 -25 0 0 -180z"/>
<path d="M2217 2867 c-10 -6 -20 -29 -24 -50 -5 -35 -4 -37 21 -37 19 0 26 5
26 19 0 21 23 45 33 34 4 -3 7 -21 7 -39 0 -26 -5 -33 -25 -38 -46 -12 -65
-41 -65 -98 0 -75 7 -82 85 -85 l67 -2 -4 135 c-3 129 -4 137 -27 155 -27 22
-69 25 -94 6z m61 -194 c-2 -44 -7 -58 -18 -58 -19 0 -27 80 -9 101 22 27 30
14 27 -43z"/>
<path d="M2526 2859 c-25 -20 -26 -23 -26 -135 0 -110 1 -116 25 -138 14 -13
25 -29 25 -36 0 -8 7 -21 15 -30 17 -19 10 -50 -10 -50 -8 0 -17 -5 -20 -10
-10 -17 25 -24 51 -10 30 16 32 54 4 77 -24 21 -26 43 -5 43 29 0 55 38 55 80
0 36 -3 40 -24 40 -21 0 -25 -5 -28 -37 -2 -26 -8 -38 -18 -38 -12 0 -16 20
-18 104 -2 75 1 107 10 112 19 12 28 1 28 -37 0 -30 3 -34 25 -34 22 0 25 4
25 38 0 46 -8 58 -43 71 -38 15 -40 14 -71 -10z"/>
<path d="M2872 2864 c-12 -8 -22 -10 -22 -5 0 6 -11 11 -25 11 l-25 0 0 -150
0 -150 25 0 25 0 0 124 c0 99 3 126 15 136 27 23 34 -2 37 -130 3 -121 4 -125
26 -128 22 -3 22 -3 22 143 l0 145 -26 10 c-31 12 -25 13 -52 -6z"/>
<path d="M2697 2864 c-10 -10 -8 -266 2 -282 5 -8 17 -12 27 -10 18 3 19 14
19 148 0 138 -1 145 -20 148 -12 2 -24 0 -28 -4z"/>
</g>
</svg>
